<svg xmlns="http://www.w3.org/2000/svg" viewBox="0 0 900 420">
  <defs>
    <linearGradient id="bg" x1="0" x2="1" y1="0" y2="1">
      <stop offset="0" stop-color="#172219"/>
      <stop offset="1" stop-color="#060a07"/>
    </linearGradient>
    <filter id="shadow"><feDropShadow dx="0" dy="10" stdDeviation="12" flood-opacity=".45"/></filter>
  </defs>
  <rect width="900" height="420" fill="url(#bg)"/>
  <path d="M0 350C170 270 315 390 490 300S770 245 900 280V420H0Z" fill="#101812"/>
  <rect x="54" y="70" width="355" height="210" rx="12" fill="#25392a"/>
  <rect x="72" y="88" width="320" height="174" rx="8" fill="#132018"/>
  <text x="232" y="184" text-anchor="middle" font-family="Arial" font-size="32" font-weight="800" fill="#eef4ef">DÉPÔT</text>
  <g stroke="#7be12d" stroke-width="4" fill="none" opacity=".85">
    <path d="M480 74v248"/>
    <path d="M548 74v248"/>
    <path d="M616 74v248"/>
    <path d="M684 74v248"/>
    <path d="M752 74v248"/>
    <path d="M820 74v248"/>
  </g>
  <g filter="url(#shadow)">
    <g transform="translate(496 118)">
      <rect width="48" height="130" rx="11" fill="#d5352b"/>
      <rect x="7" y="12" width="34" height="39" rx="5" fill="#17232a"/>
      <circle cx="12" cy="113" r="7" fill="#0a0b0a"/><circle cx="36" cy="113" r="7" fill="#0a0b0a"/>
    </g>
    <g transform="translate(634 118)">
      <rect width="48" height="130" rx="11" fill="#7be12d"/>
      <rect x="7" y="12" width="34" height="39" rx="5" fill="#17232a"/>
      <circle cx="12" cy="113" r="7" fill="#0a0b0a"/><circle cx="36" cy="113" r="7" fill="#0a0b0a"/>
    </g>
    <g transform="translate(772 118)">
      <rect width="48" height="130" rx="11" fill="#d5352b"/>
      <rect x="7" y="12" width="34" height="39" rx="5" fill="#17232a"/>
      <circle cx="12" cy="113" r="7" fill="#0a0b0a"/><circle cx="36" cy="113" r="7" fill="#0a0b0a"/>
    </g>
  </g>
  <text x="54" y="365" font-family="Arial" font-size="20" font-weight="800" fill="#7be12d" letter-spacing="3">AFFECTATION DU PARC</text>
</svg>
